<svg width="240" height="220" viewBox="0 0 240 220" xmlns="http://www.w3.org/2000/svg">
    <rect width="240" height="220" rx="28" fill="#0B1020" />
    <g transform="translate(120,110)"> <!-- Abstract stomach outline -->
        <path
            d="M-40,-40 C-10,-60 30,-50 40,-20 C48,5 30,20 20,35 C5,58 -30,60 -50,35 C-65,15 -65,-10 -55,-25 C-50,-33 -45,-37 -40,-40Z"
            fill="none" stroke="#22D3EE" stroke-width="6" />
        <path
            d="M-36,-36 C-6,-54 26,-46 34,-20 C41,0 26,14 16,28 C4,48 -26,50 -44,30 C-57,12 -57,-8 -49,-20"
            fill="none" stroke="#A78BFA" stroke-width="5" stroke-dasharray="2 8" />
        <path d="M-32,-30 C-2,-46 20,-40 28,-18 C34,-2 22,10 12,22 C2,36 -20,40 -36,24" fill="none"
            stroke="#34D399" stroke-width="5" stroke-dasharray="8 6" /> <!-- Four chamber pips -->
        <g fill="#F8FAFC">
            <circle cx="-22" cy="-18" r="5" />
            <circle cx="10" cy="-10" r="5" />
            <circle cx="6" cy="14" r="5" />
            <circle cx="-18" cy="10" r="5" />
        </g> <!-- Backflow arrow -->
        <path d="M18,-8 A22,22 0 0,1 -6,10" fill="none" stroke="#94A3B8" stroke-width="5"
            stroke-linecap="round" />
        <polygon points="-6,10 2,4 2,16" fill="#94A3B8" />
    </g>
</svg>