<svg width="220" height="220" viewBox="0 0 220 220" xmlns="http://www.w3.org/2000/svg"> <defs> <linearGradient id="fluxA" x1="0" y1="0" x2="1" y2="1"> <stop offset="0%" stop-color="#0EA5E9"/> <stop offset="100%" stop-color="#14B8A6"/> </linearGradient> </defs> <rect width="220" height="220" rx="28" fill="#0B1020"/> <g transform="translate(110,110)"> <g fill="none" stroke="url(#fluxA)" stroke-width="10" stroke-linecap="round"> <path d="M0,-70 A70,70 0 0,1 70,0" /> <path d="M70,0 A70,70 0 0,1 0,70" /> <path d="M0,70 A70,70 0 0,1 -70,0" /> <path d="M-70,0 A70,70 0 0,1 0,-70" /> </g> <g fill="#0B1020" stroke="url(#fluxA)" stroke-width="8"> <circle cx="0" cy="-70" r="12"/> <circle cx="70" cy="0" r="12"/> <circle cx="0" cy="70" r="12"/> <circle cx="-70" cy="0" r="12"/> </g> <circle cx="0" cy="0" r="6" fill="#E2E8F0"/> <g fill="none" stroke="#94A3B8" stroke-width="6" stroke-linecap="round"> <path d="M40,-10 A45,45 0 0,0 -8,40" /> <polyline points="-8,40 -2,28 10,32" fill="none" stroke="#94A3B8" stroke-width="6"/> </g> </g> </svg>